<svg xmlns="http://www.w3.org/2000/svg" viewBox="0 0 80 80" fill="none">
  <g transform="translate(80 0) scale(-1 1)">
    <path d="M71 9H25C15.6 9 9 15.5 9 25v46" stroke="#8a6b4a" stroke-width="2" stroke-linecap="round"/>
    <path d="M24 9c-2.5 6.9-7.9 10.7-15 11.3" stroke="#8a6b4a" stroke-width="1.4" stroke-linecap="round"/>
    <path d="M9 31c5.8-1.8 10.4-5.7 13.7-11.7" stroke="#8a6b4a" stroke-width="1.2" stroke-linecap="round"/>
    <path d="M25 19c7.8 1.1 13.8-1.7 18-8.4" stroke="#8a6b4a" stroke-width="1.1" stroke-linecap="round"/>
    <path d="M18 28c4.9 5 5 11.2.5 18.5" stroke="#8a6b4a" stroke-width="1.1" stroke-linecap="round"/>
    <path d="M31 15c3.5-4.1 8-5.7 13.6-4.6" stroke="#8a6b4a" stroke-width="1" stroke-linecap="round"/>
    <path d="M15 37c-3.5 4.6-4 9.8-1.3 15.8" stroke="#8a6b4a" stroke-width="1" stroke-linecap="round"/>
    <path d="M35 11c-2.1 3.4-1.3 6.1 2.3 8.1" stroke="#8a6b4a" stroke-width="0.9" stroke-linecap="round"/>
    <path d="M10 44c3.8-1 6.2.4 7.1 4.4" stroke="#8a6b4a" stroke-width="0.9" stroke-linecap="round"/>
  </g>
</svg>
